<svg
             
              t="1628302037752"
              class="icon"
              style="vertical-align: middle"
              viewBox="0 0 1024 1024"
              version="1.1"
              xmlns="http://www.w3.org/2000/svg"
              p-id="2855"
              width="19"
              height="19"
            >
              <path
                d="M834.7 398.7c5-6.6 3.6-16-3.1-21-6.6-5-16-3.6-21 3.1C745 468.7 641.8 515.2 512 515.2s-233-46.5-298.6-134.5c-5-6.6-14.4-8-21-3.1-6.6 5-8 14.3-3.1 21 25.2 33.8 55.8 62.2 91.2 84.7l-54.9 54.9c-4.8 4.8-4.8 12.7 0 17.5l3.7 3.7c4.8 4.8 12.7 4.8 17.5 0l60.6-60.6c5.8 3 11.7 5.9 17.7 8.6 27.9 12.7 57.9 22.2 89.7 28.5L393 617.2c-1.8 6.6 2.1 13.4 8.7 15.2l5.1 1.4c6.6 1.8 13.4-2.1 15.2-8.7l22.6-84.2c21.7 2.8 44.1 4.3 67.3 4.3 26.5 0 52.1-1.9 76.7-5.6l22.9 85.5c1.8 6.6 8.6 10.5 15.2 8.7l5.1-1.4c6.6-1.8 10.5-8.6 8.7-15.2L618.2 534c28.4-6.2 55.2-15.1 80.5-26.6 8.2-3.7 16.3-7.8 24.1-12l64 64c4.8 4.8 12.7 4.8 17.5 0l3.7-3.7c4.8-4.8 4.8-12.7 0-17.5l-58.7-58.7c33-21.8 61.6-48.9 85.4-80.8z"
                fill="#bfbfbf"
                p-id="2856"
              ></path>
            </svg>