<svg t="1630286463534" class="icon" viewBox="0 0 1024 1024" version="1.1" xmlns="http://www.w3.org/2000/svg" p-id="1672" width="200" height="200"><path d="M354.6 64.2c19.3 0 35 15.7 35 35v154.9c0 74.4-60.6 135-135 135H99c-19.3 0-35-15.7-35-35s15.7-35 35-35h155.6c35.8 0 65-29.2 65-65V99.2c0-19.3 15.7-35 35-35zM99 640.1h155.6c74.4 0 135 60.6 135 135v148.6c0 19.3-15.7 35-35 35s-35-15.7-35-35V775.1c0-35.8-29.2-65-65-65H99c-19.3 0-35-15.7-35-35s15.7-35 35-35zM781.8 644.6h141.7c19.3 0 35 15.7 35 35s-15.7 35-35 35H781.8c-35.8 0-65 29.2-65 65v144.1c0 19.3-15.7 35-35 35s-35-15.7-35-35V779.6c0-74.5 60.5-135 135-135zM963.7 353.3c0-19.3-15.7-35-35-35H769.3c-35.8 0-65-29.2-65-65V104.5c0-19.3-15.7-35-35-35s-35 15.7-35 35v148.9c0 74.4 60.6 135 135 135h159.4c19.3-0.1 35-15.7 35-35.1z" fill="#515151" p-id="1673"></path></svg>